<svg xmlns="http://www.w3.org/2000/svg" width="422.5" height="421.125" viewBox="0 0 338 336.90039"><path d="M84.3 42.2L0 84.4v168l84.5 42.3 84.5 42.2 84.5-42.2 84.5-42.3v-168l-84.5-42.3C207 18.9 168.9-.1 168.7 0c-.1 0-38.1 19-84.4 42.2zm71.3 64.5l13.5 6.7 13.4-6.8 13.5-6.8V83.4c0-9 .3-16.6.8-16.8 1.1-.5 59.7 29.7 59.6 30.8-.1.5-19.8 10.8-43.7 23l-43.6 22-41.8-20.9c-23-11.5-43.1-21.7-44.7-22.7L79.7 97l30.9-15.4 30.9-15.5.3 16.9.2 16.9 13.6 6.8zm-57.4 52.4l43.8 22.3v89.5l-31-15.5c-17.1-8.5-31-15.7-31-16 0-.3 7.9-4.4 17.5-9.1l17.5-8.5v-24.5l-14-6.9-14-7-16.5 8.3c-9.1 4.5-16.7 8.2-17 8.2-.3 0-.5-14.2-.5-31.5s.3-31.5.7-31.5c.3 0 20.3 10 44.5 22.2zm186.3 9.7l-.8 31-16.3-8.2-16.4-8.2-14 7-14 6.9v10.6c0 5.8.3 11.4.6 12.5.4 1.3 4.9 4.1 13.3 8.2 6.9 3.5 14.1 7.5 16 9.1l3.4 2.8-30.2 15.3L196 271v-90l44.3-21.9c24.3-12.1 44.4-21.8 44.5-21.7.2.2.1 14.3-.3 31.4z"/></svg>
