<?xml version="1.0" encoding="utf-8"?>


<!-- The icon can be used freely in both personal and commercial projects with no attribution required, but always appreciated. 
You may NOT sub-license, resell, rent, redistribute or otherwise transfer the icon without express written permission from iconmonstr.com -->


<!DOCTYPE svg PUBLIC "-//W3C//DTD SVG 1.1//EN" "http://www.w3.org/Graphics/SVG/1.1/DTD/svg11.dtd">

<svg version="1.1" xmlns="http://www.w3.org/2000/svg" xmlns:xlink="http://www.w3.org/1999/xlink" x="0px" y="0px"

	 width="512px" height="512px" viewBox="0 0 512 512" enable-background="new 0 0 512 512" xml:space="preserve">

<path id="download-9-icon" d="M360.353,277.271L256.998,380.802L153.647,277.271h47.529v-38.77h111.646v38.77H360.353z

	 M201.177,220.49h111.646v-31.318H201.177V220.49z M312.823,172.729v-25.53H201.177v25.53H312.823z M90,256

	c0,91.756,74.258,166,166,166c91.755,0,166-74.258,166-166c0-91.755-74.258-166-166-166C164.245,90,90,164.259,90,256z M462,256

	c0,113.771-92.229,206-206,206S50,369.771,50,256c0-113.771,92.229-206,206-206S462,142.229,462,256z"/>

</svg>

