<?xml version="1.0" encoding="utf-8"?>


<!-- The icon can be used freely in both personal and commercial projects with no attribution required, but always appreciated. 
You may NOT sub-license, resell, rent, redistribute or otherwise transfer the icon without express written permission from iconmonstr.com -->


<!DOCTYPE svg PUBLIC "-//W3C//DTD SVG 1.1//EN" "http://www.w3.org/Graphics/SVG/1.1/DTD/svg11.dtd">

<svg version="1.1" xmlns="http://www.w3.org/2000/svg" xmlns:xlink="http://www.w3.org/1999/xlink" x="0px" y="0px"

	 width="512px" height="512px" viewBox="0 0 512 512" enable-background="new 0 0 512 512" xml:space="preserve">

<path id="download-11-icon" d="M461.4,244.318c0,50.852-41.371,92.221-92.221,92.221h-36.847v-40h36.847

	c28.795,0,52.221-23.426,52.221-52.221c0-35.412-23.816-53.746-49.18-53.844c-1.303-58.902-40.637-84.982-78.664-84.982

	c-50.308,0-70.974,38.08-76.131,52.662c-20.51-29.582-76.177-7.248-64.641,32.348C118.25,184.24,90.6,210.24,90.6,244.318

	c0,28.795,23.427,52.221,53.222,52.221h50.512v40h-50.512c-51.852,0-93.222-41.369-93.222-92.221

	c0-41.408,27.561-77.127,66.153-88.463c10.854-36.998,49.784-58.686,86.933-48.779c22.24-26.299,54.773-41.584,89.871-41.584

	c57.115,0,105.365,40.816,115.781,95.777C440.941,176.473,461.4,208.404,461.4,244.318z M336.918,372.8h-33.84v-76.261h-79.486

	V372.8h-33.84l73.582,73.708L336.918,372.8z"/>

</svg>

