<?xml version="1.0" encoding="utf-8"?>


<!-- The icon can be used freely in both personal and commercial projects with no attribution required, but always appreciated. 
You may NOT sub-license, resell, rent, redistribute or otherwise transfer the icon without express written permission from iconmonstr.com -->


<!DOCTYPE svg PUBLIC "-//W3C//DTD SVG 1.1//EN" "http://www.w3.org/Graphics/SVG/1.1/DTD/svg11.dtd">

<svg version="1.1" xmlns="http://www.w3.org/2000/svg" xmlns:xlink="http://www.w3.org/1999/xlink" x="0px" y="0px"

	 width="512px" height="512px" viewBox="0 0 512 512" enable-background="new 0 0 512 512" xml:space="preserve">

<path id="github-2-circle-icon" d="M166.96,311.252c0,0.681-0.779,1.231-1.739,1.231c-0.961,0-1.739-0.551-1.739-1.231

	c0-0.683,0.778-1.234,1.739-1.234C166.181,310.018,166.96,310.569,166.96,311.252z M169.361,314.067

	c-1.123,0-2.034,0.647-2.034,1.442c0,0.797,0.911,1.443,2.034,1.443c1.122,0,2.032-0.646,2.032-1.443

	C171.394,314.715,170.483,314.067,169.361,314.067z M179.201,323.568c-1.387,0-2.512,0.799-2.512,1.782

	c0,0.984,1.125,1.78,2.512,1.78c1.386,0,2.511-0.796,2.511-1.78C181.712,324.367,180.587,323.568,179.201,323.568z M156.761,304.004

	c-0.737,0-1.335,0.424-1.335,0.947c0,0.521,0.598,0.945,1.335,0.945s1.335-0.424,1.335-0.945

	C158.096,304.428,157.498,304.004,156.761,304.004z M160.961,306.658c-0.819,0-1.484,0.472-1.484,1.053

	c0,0.58,0.665,1.051,1.484,1.051c0.817,0,1.482-0.471,1.482-1.051C162.443,307.13,161.778,306.658,160.961,306.658z

	 M173.921,318.797c-1.248,0-2.26,0.719-2.26,1.604c0,0.887,1.012,1.604,2.26,1.604s2.261-0.717,2.261-1.604

	C176.182,319.516,175.169,318.797,173.921,318.797z M462,256c0,113.771-92.229,206-206,206S50,369.771,50,256S142.229,50,256,50

	S462,142.229,462,256z M355.902,266.854c0.604-1.361,1.202-2.729,1.719-4.166c16.121-1.293,32.729-1.166,49.435,0.457l0.265-2.75

	c-16.484-1.6-32.881-1.742-48.808-0.526c2.56-8.17,3.909-17.398,3.812-27.893c-0.21-22.294-7.644-39.658-19.326-54.068

	c2.243-13.573,0.553-27.146-3.681-40.724c-16.694,1.367-31.719,6.834-45.097,16.333c-25.002-5.072-50.001-5.395-75.004,0

	c-15.604-10.532-30.928-15.697-46.015-16.333c-4.472,14.951-5.161,29.688-1.38,44.177c-13.162,13.966-18.192,30.92-17.945,49.693

	c0.141,10.747,1.796,20.31,4.852,28.765c-15.694-1.151-31.825-0.997-48.049,0.575l0.266,2.75

	c16.521-1.604,32.947-1.736,48.902-0.488c0.586,1.42,1.175,2.836,1.848,4.188c-17.287-0.456-32.845,1.046-47.415,4.629l0.657,2.68

	c14.788-3.634,30.63-5.098,48.317-4.502c11.697,20.781,34.215,32.992,67.006,36.867c-7.618,6.188-11.714,13.486-12.769,21.745

	c0,0-3.447,0-17.367,0c-23.324,0-29.683-29.739-53.841-26.806c23.437,11.623,18.756,48.773,56.259,48.773

	c12.604,0,15.283,0,15.756,0v34.054c0.167,5.503-2.229,9.183-6.098,11.733c13.431,1.355,23.524-5.35,23.524-13.574

	c0-8.227,0-41.004,0-45.014s4.199-4.32,4.199-4.32v52.555c0.178,5.23-2.364,8.203-5.062,11.044

	c11.833,0.472,22.963-1.892,23.467-11.962c0,0,0-47.77,0-50.299c0-2.528,4.145-2.591,4.145,0c0,2.592,0,47.938,0,47.938

	c0.122,8.496,7.46,15.384,23.006,14.322c-4.159-3.348-5.436-6.731-5.436-11.628s0-51.971,0-51.971s4.285-0.219,4.285,4.32

	c0,4.54,0,36.238,0,43.834c0,9.756,11.711,13.781,25.077,13.402c-4.379-3.28-7.343-7.192-7.361-12.424v-52.715

	c-0.452-7.748-3.603-15.053-9.779-21.858c29.975-4.603,51.579-16.567,62.337-38.013c17.745-0.609,33.635,0.851,48.461,4.496

	l0.658-2.68C389.038,267.863,373.352,266.363,355.902,266.854z M213.73,331.139c-1.54,0-2.79,0.889-2.79,1.981

	s1.25,1.979,2.79,1.979c1.541,0,2.79-0.887,2.79-1.979S215.271,331.139,213.73,331.139z M204.521,330.96

	c-1.541,0-2.789,0.888-2.789,1.981c0,1.092,1.248,1.979,2.789,1.979c1.54,0,2.79-0.887,2.79-1.979

	C207.311,331.848,206.061,330.96,204.521,330.96z M195.19,330.659c-1.54,0-2.79,0.888-2.79,1.981c0,1.092,1.25,1.979,2.79,1.979

	c1.542,0,2.79-0.887,2.79-1.979C197.98,331.547,196.732,330.659,195.19,330.659z M186.342,328.049c-1.542,0-2.791,0.888-2.791,1.98

	c0,1.094,1.249,1.98,2.791,1.98c1.54,0,2.789-0.887,2.789-1.98C189.131,328.937,187.882,328.049,186.342,328.049z"/>

</svg>

