<?xml version="1.0" encoding="utf-8"?>


<!-- The icon can be used freely in both personal and commercial projects with no attribution required, but always appreciated. 
You may NOT sub-license, resell, rent, redistribute or otherwise transfer the icon without express written permission from iconmonstr.com -->


<!DOCTYPE svg PUBLIC "-//W3C//DTD SVG 1.1//EN" "http://www.w3.org/Graphics/SVG/1.1/DTD/svg11.dtd">

<svg version="1.1" xmlns="http://www.w3.org/2000/svg" xmlns:xlink="http://www.w3.org/1999/xlink" x="0px" y="0px"

	 width="512px" height="512px" viewBox="0 0 512 512" enable-background="new 0 0 512 512" xml:space="preserve">

<path id="github-2-circle-outline-icon" d="M256,90c44.34,0,86.026,17.267,117.38,48.62C404.733,169.974,422,211.66,422,256

	c0,44.34-17.267,86.026-48.62,117.38C342.026,404.732,300.34,422,256,422s-86.026-17.268-117.38-48.62

	C107.267,342.026,90,300.34,90,256c0-44.34,17.267-86.026,48.62-117.38C169.974,107.267,211.66,90,256,90 M256,50

	C142.229,50,50,142.229,50,256s92.229,206,206,206s206-92.229,206-206S369.771,50,256,50L256,50z M391.25,266.53l0.238-2.476

	c-14.836-1.439-29.593-1.567-43.927-0.473c2.304-7.354,3.518-15.659,3.43-25.104c-0.188-20.065-6.879-35.692-17.394-48.662

	c2.02-12.216,0.498-24.431-3.312-36.651c-15.024,1.23-28.547,6.151-40.587,14.7c-22.502-4.564-45.001-4.855-67.503,0

	c-14.044-9.479-27.835-14.127-41.413-14.7c-4.025,13.456-4.646,26.719-1.242,39.76c-11.846,12.57-16.373,27.828-16.151,44.724

	c0.127,9.672,1.617,18.279,4.367,25.888c-14.125-1.036-28.643-0.896-43.244,0.518l0.239,2.476

	c14.869-1.443,29.652-1.563,44.012-0.439c0.527,1.278,1.058,2.552,1.663,3.769c-15.559-0.41-29.561,0.941-42.674,4.166l0.592,2.412

	c13.31-3.271,27.566-4.588,43.485-4.053c10.527,18.703,30.794,29.693,60.306,33.182c-6.856,5.568-10.543,12.137-11.492,19.57

	c0,0-3.103,0-15.63,0c-20.992,0-26.715-26.766-48.457-24.125c21.093,10.461,16.88,43.896,50.633,43.896c11.343,0,13.755,0,14.181,0

	v30.648c0.15,4.952-2.006,8.265-5.488,10.56c12.088,1.221,21.172-4.814,21.172-12.217c0-7.403,0-36.902,0-40.512

	s3.779-3.889,3.779-3.889v47.3c0.16,4.707-2.128,7.383-4.556,9.939c10.649,0.425,20.666-1.702,21.12-10.766c0,0,0-42.993,0-45.269

	s3.729-2.332,3.729,0s0,43.145,0,43.145c0.11,7.646,6.714,13.845,20.705,12.89c-3.743-3.013-4.892-6.059-4.892-10.466

	c0-4.406,0-46.773,0-46.773s3.856-0.196,3.856,3.889c0,4.086,0,32.614,0,39.451c0,8.779,10.54,12.402,22.569,12.062

	c-3.94-2.952-6.608-6.474-6.625-11.182v-47.443c-0.407-6.974-3.242-13.548-8.802-19.673c26.978-4.142,46.422-14.91,56.104-34.211

	c15.971-0.549,30.271,0.766,43.615,4.047l0.592-2.412c-13.215-3.248-27.333-4.599-43.037-4.157c0.543-1.226,1.082-2.456,1.547-3.749

	C361.268,264.955,376.216,265.069,391.25,266.53z M165.984,305.007c-0.663,0-1.201-0.382-1.201-0.851

	c0-0.471,0.538-0.853,1.201-0.853c0.664,0,1.201,0.382,1.201,0.853C167.186,304.625,166.648,305.007,165.984,305.007z

	 M169.765,307.586c-0.737,0-1.336-0.424-1.336-0.946s0.599-0.947,1.336-0.947c0.735,0,1.334,0.425,1.334,0.947

	S170.5,307.586,169.765,307.586z M173.599,310.936c-0.865,0-1.565-0.496-1.565-1.109s0.7-1.11,1.565-1.11

	c0.864,0,1.565,0.497,1.565,1.11S174.463,310.936,173.599,310.936z M177.325,314.958c-1.011,0-1.831-0.582-1.831-1.3

	c0-0.715,0.82-1.297,1.831-1.297c1.01,0,1.829,0.582,1.829,1.297C179.154,314.376,178.335,314.958,177.325,314.958z

	 M181.429,319.504c-1.123,0-2.034-0.646-2.034-1.443c0-0.797,0.911-1.443,2.034-1.443s2.034,0.646,2.034,1.443

	C183.463,318.858,182.552,319.504,181.429,319.504z M186.181,324.117c-1.248,0-2.261-0.716-2.261-1.602

	c0-0.885,1.013-1.604,2.261-1.604c1.247,0,2.26,0.719,2.26,1.604C188.44,323.401,187.428,324.117,186.181,324.117z M192.607,328.509

	c-1.388,0-2.512-0.798-2.512-1.782s1.124-1.783,2.512-1.783c1.386,0,2.51,0.799,2.51,1.783S193.993,328.509,192.607,328.509z

	 M200.571,330.857c-1.386,0-2.511-0.799-2.511-1.781c0-0.984,1.125-1.783,2.511-1.783c1.388,0,2.511,0.799,2.511,1.783

	C203.082,330.059,201.959,330.857,200.571,330.857z M208.969,331.128c-1.388,0-2.511-0.798-2.511-1.78

	c0-0.984,1.123-1.783,2.511-1.783c1.386,0,2.511,0.799,2.511,1.783C211.479,330.33,210.354,331.128,208.969,331.128z

	 M217.257,331.289c-1.386,0-2.511-0.797-2.511-1.781c0-0.983,1.125-1.783,2.511-1.783c1.388,0,2.512,0.8,2.512,1.783

	C219.769,330.492,218.645,331.289,217.257,331.289z"/>

</svg>

