<?xml version="1.0" encoding="utf-8"?>

<!-- License Agreement at http://iconmonstr.com/license/ -->

<!DOCTYPE svg PUBLIC "-//W3C//DTD SVG 1.1//EN" "http://www.w3.org/Graphics/SVG/1.1/DTD/svg11.dtd">
<svg version="1.1" xmlns="http://www.w3.org/2000/svg" xmlns:xlink="http://www.w3.org/1999/xlink" x="0px" y="0px"
	 width="512px" height="512px" viewBox="0 0 512 512" enable-background="new 0 0 512 512" xml:space="preserve">
<path id="linux-os-4-icon" d="M237.645,192.046c4.431,3.652,8.892,7.511,14.654,7.511c6.942,0,13.052-5.771,21.355-8.949
	c2.818-1.073,4.429,3.174,1.625,4.249c-8.042,3.076-14.51,9.249-22.98,9.249c-7.45,0-13.021-4.819-17.546-8.548
	C232.431,193.644,235.322,190.134,237.645,192.046z M358.47,341.022c-0.936,5.239-4.342,9.294-9.111,10.844
	c-11.873,3.862-21.748,14.394-27.053,20.051c-4.421,4.716-9.958,7.313-15.592,7.313c-11.898,0-15.601-9.595-17.315-12.602
	c-8.698-2.18-19.363-3.332-29.097-3.332c-8.601,0-17.931,0.926-25.232,2.676c-2.346,3.74-6.28,11.48-17.716,11.48
	c-3.169,0-6.414-0.727-9.644-2.154c-10.238-4.528-21.579-8.461-32.736-7.895c-14.532,0.736-18.481-9.538-13.883-17.921
	c2.448-4.463,1.659-9.341,0.964-13.643c-1.105-6.832-1.903-11.77,7.697-15.841c4.544-1.871,12.449-5.745,15.071-12.225
	c-5.828-16.535-0.976-47.387,23.085-76.486c17.127-20.712,16.533-32.22,15.552-51.288c-0.333-6.458-0.711-13.777-0.516-22.824
	c0.306-14.266,8.796-38.41,38.666-38.41c33.726,0,37.366,32.037,37.366,45.811c0,14.935-5.953,33.313,12.968,52.235
	c11.983,11.983,39.043,44.175,31.66,88.195c2.861,4.156,4.644,9.719,5.323,12.756c0.952,4.254,2.22,9.029,6.217,12.183
	C357.968,332.176,359.272,336.522,358.47,341.022z M254.956,170.909c2.326,0.184,4.236,0.699,5.993,1.409
	c0.619-4.912,3.503-10.658,7.969-10.255c7.053,0.634,7.082,10.572,4.983,16.618c1.84,0.745,2.836,1.125,4.06,1.611
	c4.839-8.49,3.697-25.73-6.39-27.298C262.503,151.585,255.682,160.641,254.956,170.909z M253.188,178.194
	c-5.919,0-8.26,3.753-14.277,7.461c-5.61,3.459-9.943,4.436-9.943,7.576c-0.065,4.588,6.071,7.099,12.117,11.459
	c4.775,3.445,7.795,6.317,11.441,6.317c0.004,0,0.008,0,0.013,0c6.666,0,10.272-3.92,17.263-8.124
	c4.772-2.872,13.244-5.704,13.244-9.653c0-3.854-5.625-5.187-13.734-8.598C261.092,181.175,259.25,178.194,253.188,178.194z
	 M229.989,182.205c1.206-0.634,2.346-1.227,3.499-1.889c-2.623-2.18-3.391-12.8,1.321-14.22c4.391-1.321,6.144,4.842,6.628,8.661
	c1.105-0.773,2.265-1.503,3.537-2.117c-0.035-9.09-4.602-17.836-12.33-15.964C225.195,158.48,225.192,174.341,229.989,182.205z
	 M229.483,354.209c-2.66-9.922-11.799-12.41-16.199-21.367c-6.788-13.824-14.919-28.703-23.214-19.359
	c-3.031,3.414-5.873,7.197-14.695,10.838c-6.381,2.715-7.147,4.929-6.128,11.231c0.666,4.12,1.871,9.212-0.814,14.106
	c-3.161,5.767-1.589,11.568,6.826,11.568c4.057,0,12.636-1.764,34.132,7.059C223.39,374.031,231.939,363.375,229.483,354.209z
	 M305.049,297.01c2.55-19.244,30.937-4.233,32.381,5.988c1.182,0.108,2.059,0.324,2.801,0.525
	c-0.656-9.197-7.886-16.395-14.626-19.075c-0.434-14.618-1.192-26.528-10.827-40.823c0,0,7.362,27.613,1.623,39.09
	c-1.383-18.874-26.029-51.997-31.972-79.534c-3.545,2.346-7.767,4.029-10.552,5.707c-7.146,4.297-12.25,9.48-21.516,9.48h-0.018
	c-6.266,0-10.637-4.123-15.846-7.877c-2.314-1.669-4.73-3.1-7.088-4.72c-0.174,9.165-0.288,23.831-8.082,34.931
	c-15.429,21.982-16.322,40.335-17.105,51.325c-3.765-5.468-8.147-24.551-0.652-45.262c-15.375,23.391-11.806,44.301-0.513,52.789
	c12.076,9.074,24.011,14.671,29.858,22.684c5.483,7.516,0.899,14.995-5.262,16.573c3.838,4.069,7.408,8.12,9.641,14.384
	c15.079,7.6,35.255,4.166,51.077-3.322c1.691-5.171,4.034-10.088,5.283-16.297C296.39,319.986,291.444,299.018,305.049,297.01z
	 M347.844,332.842c-3.957-4.089-5.275-8.296-6.289-12.426c-1.623-6.604-1.659-9.434-8.91-9.434
	c-4.463,5.142-23.997,13.043-27.256-5.767c-5.009,1.733-1.966,17.575-4.096,28.167c-2.336,11.604-6.972,18.437-5.519,28.805
	c1.357,9.691,12.797,13.539,22.509,3.178c5.045-5.383,12.321-13.733,23.212-17.725C352.704,343.531,352.474,337.627,347.844,332.842
	z M462,256c0,113.771-92.229,206-206,206S50,369.771,50,256S142.229,50,256,50S462,142.229,462,256z M359.157,324.861
	c-2.249-1.773-3.032-4.957-3.938-8.642c-0.932-3.79-1.971-8.021-4.98-11.299c6.992-46.188-21.163-80.136-33.713-92.688
	c-16.585-16.586-11.071-32.506-11.071-47.653c0-29.717-14.362-52.29-43.845-52.29c-34.877,0-44.787,28.128-45.143,44.75
	c-0.201,9.283,0.184,16.728,0.522,23.296c0.962,18.681,1.444,28.058-14.075,46.825c-24.812,30.011-30.315,61.208-24.847,79.746
	c-2.298,2.367-5.478,4.917-10.816,7.116c-14.309,6.068-12.739,15.769-11.595,22.853c0.607,3.747,1.13,6.982-0.247,9.491
	c-3.392,6.184-3.469,13.161-0.209,18.666c4.1,6.923,12.107,9.542,20.335,8.825c9.795-0.852,20.457,3.344,29.551,7.365
	c4.062,1.799,8.189,2.709,12.267,2.709c9.074,0,17.188-4.552,21.546-11.979c6.484-1.426,13.849-2.176,21.402-2.176
	c8.626,0,17.242,0.951,25.029,2.758c6.979,14.975,27.986,18.444,41.701,3.812c4.906-5.232,14.039-14.973,24.33-18.318
	c7.081-2.303,12.12-8.234,13.486-15.867C366.084,335.236,363.903,328.607,359.157,324.861z"/>
</svg>
