<?xml version="1.0" encoding="utf-8"?>

<!-- License Agreement at http://iconmonstr.com/license/ -->

<!DOCTYPE svg PUBLIC "-//W3C//DTD SVG 1.1//EN" "http://www.w3.org/Graphics/SVG/1.1/DTD/svg11.dtd">
<svg version="1.1" xmlns="http://www.w3.org/2000/svg" xmlns:xlink="http://www.w3.org/1999/xlink" x="0px" y="0px"
	 width="512px" height="512px" viewBox="0 0 512 512" enable-background="new 0 0 512 512" xml:space="preserve">
<path id="apple-os-4-icon" d="M256,50C142.229,50,50,142.229,50,256s92.229,206,206,206s206-92.229,206-206S369.771,50,256,50z
	 M306.674,117.22c3.333,30.347-23.777,62.012-52.016,59.817C251.17,150.513,276.105,118.452,306.674,117.22z M302.984,376.438
	c-17.394,0.33-22.973-10.304-42.855-10.304c-19.872,0-26.08,9.984-42.526,10.634c-27.815,1.056-68.288-63.027-68.288-118.913
	c0-51.342,33.311-76.793,64.568-77.262c16.76-0.299,32.593,11.304,42.825,11.304c10.258,0,29.49-13.953,49.703-11.901
	c8.454,0.351,32.217,3.41,47.468,25.709c-40.466,26.405-36.627,81.637,6.806,101.941
	C352.184,332.303,329.204,375.964,302.984,376.438z"/>
</svg>
