<?xml version="1.0" encoding="utf-8"?>

<!-- License Agreement at http://iconmonstr.com/license/ -->

<!DOCTYPE svg PUBLIC "-//W3C//DTD SVG 1.1//EN" "http://www.w3.org/Graphics/SVG/1.1/DTD/svg11.dtd">
<svg version="1.1" xmlns="http://www.w3.org/2000/svg" xmlns:xlink="http://www.w3.org/1999/xlink" x="0px" y="0px"
	 width="512px" height="512px" viewBox="0 0 512 512" enable-background="new 0 0 512 512" xml:space="preserve">
<path id="linux-os-5-icon" d="M256,90c44.34,0,86.026,17.267,117.38,48.62C404.733,169.974,422,211.66,422,256
	c0,44.34-17.267,86.026-48.62,117.38C342.026,404.732,300.34,422,256,422s-86.026-17.268-117.38-48.62
	C107.267,342.026,90,300.34,90,256c0-44.34,17.267-86.026,48.62-117.38C169.974,107.267,211.66,90,256,90 M256,50
	C142.229,50,50,142.229,50,256s92.229,206,206,206s206-92.229,206-206S369.771,50,256,50L256,50z M348.075,320.155
	c-5.706-4.502-3.487-14.447-9.421-19.351l0.002,0.001c5.744-33.969-10.344-63.908-29.528-83.093
	c-16.102-16.104-10.908-31.764-10.908-45.325c0-21.668-9.139-44.516-36.851-44.516c-29.626,0-37.734,24.027-38.029,37.735
	c-0.708,32.926,6.849,41.478-12.972,65.447c-23.31,28.192-26.747,56.311-21.491,71.229c0,0,0,0,0.001,0
	c-2.458,2.788-5.781,5.875-11.993,8.434c-17.146,7.271-4.581,19.428-9.316,28.061c-5.481,9.993,0.551,21.904,15.432,20.606
	c9.532-0.829,19.559,3.074,28.264,6.925c12.251,5.419,23.308,0.167,27.546-8.293c14.294-3.427,31.941-2.99,46.225,0.588
	c4.395,11.934,21.599,16.723,33.563,3.959c5.252-5.602,13.54-14.232,23.314-17.412C353.378,341.424,355.518,326.027,348.075,320.155
	z M253.127,214.522c-3.311,0-6.051-2.607-10.385-5.733c-5.487-3.957-11.055-6.236-10.996-10.399c0-2.851,3.932-3.736,9.024-6.875
	c5.46-3.366,7.584-6.772,12.955-6.772c5.502,0,7.173,2.705,14.633,5.844c7.361,3.096,12.466,4.306,12.466,7.804
	c0,3.584-7.688,6.155-12.02,8.76c-6.343,3.815-9.617,7.373-15.668,7.373S256.438,214.523,253.127,214.522z M270.411,161.873
	c9.152,1.422,10.188,17.069,5.796,24.773c-1.108-0.441-2.013-0.786-3.684-1.462c1.907-5.487,1.878-14.506-4.521-15.082
	c-4.054-0.365-6.671,4.849-7.233,9.307c-1.595-0.644-3.327-1.112-5.438-1.278C255.99,168.812,262.18,160.594,270.411,161.873z
	 M235.083,165.214c7.014-1.699,11.157,6.238,11.189,14.487c-1.154,0.558-2.207,1.22-3.21,1.921
	c-0.438-3.466-2.031-9.059-6.014-7.859c-4.276,1.288-3.581,10.926-1.2,12.905c-1.047,0.601-2.081,1.138-3.176,1.714
	C228.32,181.246,228.323,166.851,235.083,165.214z M213.121,359.463c-20.379-9.014-27.305-6.966-31.194-6.966
	c-8.071,0-10.704-5.843-7.672-11.374c2.575-4.691,1.78-9.609,1.142-13.559c-0.978-6.045-1.158-8.02,4.961-10.625
	c8.463-3.489,12.222-7.978,15.023-11.343c7.871-9.456,15.814,5.413,22.326,18.671c4.219,8.59,12.545,12.943,15.094,22.457
	C235.159,355.517,225.436,364.91,213.121,359.463z M285.656,340.545c-14.359,6.795-32.669,9.912-46.353,3.014
	c-2.027-5.684-5.266-9.357-8.75-13.051l0,0c5.592-1.434,9.753-8.221,4.776-15.042c-5.307-7.271-16.139-12.352-27.099-20.587
	c-10.249-7.701-13.487-26.68,0.466-47.906c-6.803,18.795-2.825,36.115,0.591,41.077c0.712-9.976,1.522-26.632,15.525-46.58
	c7.073-10.074,7.176-23.383,7.335-31.701c2.138,1.47,4.332,2.769,6.432,4.284c4.728,3.408,8.693,7.149,14.38,7.149h0.016
	c8.408,0,13.042-4.704,19.525-8.604c2.529-1.522,6.36-3.05,9.576-5.179c5.394,24.991,27.762,55.049,29.017,72.178
	c5.208-10.416-1.474-35.475-1.474-35.475c8.745,12.973,9.433,23.782,9.827,37.047c6.117,2.432,12.677,8.771,13.27,17.117
	c-0.781-0.135-1.625-0.232-2.539-0.283c-1.312-9.273-27.071-22.898-29.385-5.432c-12.348,1.819-7.859,20.852-10.342,33.184
	C289.317,331.391,287.191,335.853,285.656,340.545z M335.956,340.133c-10.22,3.832-17.127,11.978-21.873,17.04
	c-9.139,9.749-21.227,5.076-22.503-4.042c-1.366-9.754,3.734-15.07,5.931-25.987c2.004-9.965-0.241-25.298,4.473-26.929
	c3.066,17.699,21.445,10.263,25.645,5.424c6.822,0,7.392,2.238,8.917,8.451c0.955,3.887,2.272,7.16,5.995,11.008
	C346.896,329.6,345.562,336.529,335.956,340.133z M252.918,208.845c-6.76,0-11.815-4.373-15.921-7.758
	c-2.109-1.735,0.515-4.921,2.624-3.186c4.02,3.315,8.067,6.816,13.297,6.816c6.301,0,11.847-5.238,19.382-8.122
	c2.559-0.974,4.02,2.881,1.476,3.855C266.478,203.243,260.606,208.845,252.918,208.845z"/>
</svg>
